<?xml version="1.0" standalone="no"?>
<!DOCTYPE svg PUBLIC "-//W3C//DTD SVG 20010904//EN"
 "http://www.w3.org/TR/2001/REC-SVG-20010904/DTD/svg10.dtd">
<svg version="1.0" xmlns="http://www.w3.org/2000/svg"
 width="638.000000pt" height="364.000000pt" viewBox="0 0 638.000000 364.000000"
 preserveAspectRatio="xMidYMid meet">

<g transform="translate(0.000000,364.000000) scale(0.100000,-0.100000)"
fill="#000000" stroke="none">
<path d="M137 3616 c9 -45 -74 -58 -119 -18 -17 14 -18 -60 -18 -1548 0 -1557
0 -1563 20 -1545 18 16 20 17 26 1 4 -11 -3 -27 -20 -45 -19 -20 -26 -37 -26
-67 l1 -39 18 23 c21 24 54 31 45 8 -3 -8 2 -16 12 -18 15 -3 16 -5 3 -18 -8
-9 -29 -34 -46 -57 l-33 -42 0 -125 0 -126 35 0 c19 0 35 5 35 11 0 18 103 99
128 99 6 0 12 -12 12 -26 0 -26 0 -26 26 -9 38 25 55 5 27 -32 -18 -26 -27
-28 -104 -34 -69 -4 -56 -6 73 -7 147 -2 156 -1 151 16 -4 18 14 37 96 99 16
13 38 23 50 23 11 0 25 9 31 20 14 27 73 27 107 0 32 -25 39 -25 46 0 3 12 24
28 50 39 35 15 47 27 61 61 25 63 41 47 44 -46 4 -109 -5 -116 -203 -171 -49
-13 -119 -28 -155 -32 -37 -5 207 -9 570 -9 349 -1 630 2 624 6 -6 4 -17 36
-24 72 -7 36 -19 82 -27 104 -14 40 -18 161 -7 215 9 42 78 120 105 118 15 -1
29 -17 45 -51 13 -27 24 -56 24 -63 0 -26 29 -25 53 3 26 30 56 29 98 -5 l23
-19 -57 -70 c-31 -39 -57 -77 -57 -84 1 -29 28 -48 69 -50 l41 -1 1 -61 c0
-34 2 -71 5 -83 3 -18 -2 -22 -29 -26 -17 -2 968 -5 2191 -5 l2222 -2 0 1300
c0 1265 -1 1300 -19 1300 -10 0 -24 -6 -30 -14 -6 -8 -28 -17 -49 -20 -119
-19 -112 -19 -112 2 0 29 -28 54 -52 47 -20 -7 -54 11 -90 47 -17 17 -26 19
-66 11 -34 -6 -50 -14 -57 -31 -13 -29 -29 -28 -49 3 -29 44 -22 55 37 52 60
-2 279 30 440 65 l47 10 0 305 0 305 -22 -5 c-13 -3 -44 -12 -70 -21 -42 -13
-48 -13 -48 -1 0 8 -9 15 -19 15 -24 0 -31 19 -17 43 8 13 8 20 -1 25 -7 4
-15 27 -19 50 -6 37 -4 42 10 36 12 -4 16 0 16 15 0 12 -3 21 -7 21 -5 0 -8
11 -8 25 0 14 5 25 10 25 6 0 3 5 -5 11 -11 7 14 8 83 3 69 -4 97 -3 97 5 0 8
-827 11 -3124 11 l-3123 0 4 -24z m2547 3 c22 -6 56 -18 74 -26 18 -8 36 -12
41 -9 11 7 69 -21 95 -46 11 -10 32 -18 47 -18 33 0 71 -13 90 -32 8 -8 30
-25 49 -38 19 -13 44 -33 55 -45 11 -11 29 -27 40 -35 18 -14 124 -127 151
-162 6 -8 21 -45 33 -83 19 -57 20 -72 10 -92 -7 -13 -19 -23 -26 -23 -8 0
-11 -5 -7 -11 4 -8 0 -8 -15 0 -15 9 -25 8 -40 -1 -15 -9 -24 -8 -45 5 -24 16
-76 112 -76 140 0 7 -5 18 -11 24 -7 7 -4 12 10 16 13 3 25 -1 31 -11 16 -28
12 61 -5 101 -8 20 -37 60 -65 89 -27 29 -50 56 -50 61 0 4 -6 7 -14 7 -8 0
-21 9 -29 20 -8 11 -16 17 -19 14 -7 -6 -48 15 -63 33 -5 7 -22 15 -36 18 -20
5 -29 1 -42 -19 -9 -14 -14 -32 -11 -40 4 -11 0 -16 -10 -16 -21 0 -20 -30 1
-45 17 -13 17 -14 0 -33 -17 -19 -17 -22 -2 -45 14 -22 68 -48 133 -64 12 -3
22 -9 22 -14 0 -5 9 -9 20 -9 11 0 20 -5 20 -10 0 -7 -31 -10 -85 -8 -47 2
-85 6 -85 11 0 4 -31 7 -69 7 -37 0 -83 5 -101 11 -18 7 -35 8 -39 3 -3 -5
-17 -10 -31 -12 -32 -4 -110 -41 -110 -52 0 -5 5 -12 10 -15 17 -11 11 -35 -9
-35 -10 0 -30 -9 -45 -21 -24 -19 -92 -45 -108 -41 -4 1 -10 -8 -14 -21 -3
-12 -12 -29 -19 -37 -17 -21 -27 -137 -12 -144 8 -3 7 -9 -3 -18 -8 -7 -24
-30 -34 -50 -11 -21 -23 -38 -28 -38 -21 0 3 -60 39 -98 22 -23 15 -32 -23
-32 -26 0 -43 7 -59 24 -13 14 -25 22 -29 19 -3 -3 -29 3 -58 12 -108 37 -336
15 -397 -39 l-25 -21 18 29 c10 15 16 39 14 51 -4 17 2 27 19 36 45 24 90 109
59 109 -9 0 -16 5 -16 11 0 8 -5 8 -15 -1 -20 -16 -45 -5 -45 20 0 15 7 20 24
20 14 0 31 7 40 15 8 8 22 15 30 15 9 0 16 7 16 15 0 29 39 15 83 -30 25 -25
50 -45 56 -45 6 0 25 13 43 29 18 15 48 36 66 45 19 10 32 24 32 35 0 11 3 26
6 35 9 24 -71 76 -117 76 -33 0 -41 -4 -55 -32 l-17 -32 -17 22 c-19 23 -95
38 -115 22 -5 -4 -20 -11 -32 -14 -17 -6 -23 -3 -23 8 0 9 5 16 11 16 5 0 7 4
4 10 -9 14 47 80 68 80 11 0 32 10 49 21 16 12 51 24 76 26 60 6 79 12 66 21
-20 14 -45 64 -40 78 3 9 1 12 -4 9 -12 -7 -13 15 -2 30 15 22 62 34 110 28
56 -6 84 13 33 23 -16 4 -33 13 -36 22 -5 13 -8 14 -14 3 -6 -9 -8 -6 -8 10 0
33 76 91 101 77 20 -11 37 -1 18 11 -9 5 19 20 77 41 49 17 98 38 108 46 23
17 247 19 307 3z m374 -8 c15 -10 52 -31 82 -46 30 -15 57 -31 60 -35 3 -4 16
-11 30 -15 14 -4 35 -18 47 -31 12 -13 29 -24 37 -24 8 0 38 -13 65 -30 28
-16 69 -34 92 -40 23 -7 48 -18 56 -26 8 -8 26 -17 41 -21 15 -3 41 -15 57
-25 17 -10 41 -23 55 -30 14 -7 40 -25 58 -40 18 -15 40 -28 49 -28 13 0 14
-3 5 -12 -7 -7 -12 -16 -12 -21 0 -11 177 -188 210 -210 14 -9 48 -32 75 -52
28 -19 53 -35 57 -35 4 0 28 32 54 70 26 39 64 90 84 113 56 64 65 85 46 106
-15 17 -15 20 4 42 15 18 18 19 14 6 -6 -16 -2 -18 21 -15 16 2 30 9 33 16 2
7 -2 12 -9 11 -22 -5 -59 20 -59 39 0 10 7 27 15 39 13 19 13 23 -1 37 -30 31
-6 36 169 34 174 -2 276 4 399 23 57 9 71 8 90 -5 45 -32 50 -23 47 77 -1 50
-5 96 -8 102 -3 5 -6 18 -6 28 -2 16 20 17 393 17 217 -1 392 -4 389 -7 -3 -3
-41 -9 -84 -13 l-78 -8 72 2 c48 1 67 -1 56 -8 -9 -5 -49 -6 -89 -3 -41 3 -76
1 -79 -4 -4 -5 -23 -10 -43 -11 l-37 -1 35 -4 c19 -3 40 -9 45 -15 7 -7 0 -9
-25 -4 -66 14 -117 17 -95 7 15 -7 0 -10 -56 -10 -41 -1 -80 -6 -86 -12 -8 -8
-17 -8 -32 0 -24 13 -27 27 -8 34 6 3 1 6 -13 6 -20 1 -22 3 -10 11 11 7 7 10
-19 10 -29 0 -32 -2 -21 -15 10 -13 8 -21 -3 -12 -2 1 -11 -4 -20 -11 -21 -18
-62 5 -45 25 8 10 5 13 -13 14 -22 0 -23 1 -4 9 19 8 19 9 -3 9 -20 1 -22 -3
-20 -36 1 -21 7 -41 12 -45 8 -6 6 -11 -3 -17 -13 -9 -23 -84 -14 -108 9 -22
37 -13 62 19 18 22 21 32 11 38 -6 4 -8 10 -3 13 14 9 36 -9 28 -23 -5 -9 7
-10 51 -4 33 4 69 8 81 7 14 -1 20 3 16 10 -4 7 8 8 38 3 44 -7 47 6 4 18 -21
6 25 0 87 -10 22 -4 43 -2 51 4 7 6 30 11 52 11 22 0 105 13 184 30 110 23
148 28 158 19 8 -6 12 -17 9 -25 -3 -7 -1 -13 5 -13 5 0 12 7 15 15 6 16 49
21 58 7 10 -17 -14 -36 -48 -36 -20 0 -36 -4 -36 -8 0 -4 10 -8 23 -8 20 -1
21 -2 5 -14 -22 -16 -23 -39 -4 -55 8 -7 12 -20 9 -30 -3 -10 0 -22 6 -25 6
-4 11 -12 11 -17 0 -10 -65 -79 -75 -79 -3 0 -83 -11 -177 -25 -95 -14 -195
-28 -223 -31 -27 -3 -63 -9 -80 -14 -16 -4 -66 -11 -110 -15 -80 -6 -175 -32
-175 -48 0 -4 8 -7 18 -5 12 2 17 -4 17 -19 0 -11 12 -31 28 -43 30 -24 35
-45 13 -53 -9 -4 -17 2 -21 13 -6 20 -45 33 -69 24 -8 -3 -29 4 -45 15 -16 12
-33 21 -39 21 -5 0 -18 8 -30 18 -11 9 -30 24 -42 32 -12 8 -28 21 -36 28 -7
6 -20 12 -28 12 -9 0 -16 4 -16 8 0 5 -22 19 -50 32 -27 13 -57 32 -67 42 -9
10 -29 18 -44 18 l-29 0 6 -58 6 -58 -44 -40 c-25 -21 -59 -59 -75 -84 -48
-71 -107 -160 -118 -178 -5 -9 -43 -61 -82 -115 -40 -54 -80 -111 -88 -127 -9
-17 -19 -30 -24 -30 -11 0 -84 -151 -105 -215 l-16 -50 -55 -2 c-41 -2 -64 3
-92 19 -61 36 -64 41 -72 151 -10 126 -36 207 -66 207 -12 0 -26 5 -33 12 -8
8 -14 5 -22 -14 -14 -29 -70 -61 -108 -61 -41 0 -109 52 -123 93 -6 19 -16 40
-20 46 -5 6 -18 44 -28 85 -36 137 -77 246 -105 280 -27 32 -28 37 -23 111 l5
77 -40 16 c-22 8 -55 30 -73 48 -19 18 -58 44 -87 58 -29 13 -54 27 -56 32 -2
4 -9 7 -16 7 -13 0 -136 78 -160 103 -12 11 -13 17 -3 20 6 3 2 6 -10 6 -13 1
-23 6 -23 11 0 17 71 11 98 -9z m1462 9 c21 -7 22 -8 5 -9 -12 -1 -26 -6 -33
-13 -8 -8 -15 -8 -27 2 -33 27 -3 39 55 20z m1544 -61 c3 -17 3 -35 0 -40 -11
-19 -19 -7 -19 31 -1 48 10 53 19 9z m-335 17 c-11 -9 -69 -15 -64 -6 3 6 20
10 37 10 17 0 29 -2 27 -4z m416 -25 c3 -6 -2 -14 -11 -19 -18 -10 -54 -5 -54
8 0 18 55 26 65 11z m-1545 -16 c0 -8 -4 -15 -10 -15 -5 0 -10 7 -10 15 0 8 5
15 10 15 6 0 10 -7 10 -15z m-925 -26 c0 -7 -8 -15 -17 -17 -18 -3 -25 18 -11
32 10 10 28 1 28 -15z m1763 14 c-16 -2 -40 -2 -55 0 -16 2 -3 4 27 4 30 0 43
-2 28 -4z m-898 -13 c0 -5 -5 -10 -11 -10 -5 0 -7 5 -4 10 3 6 8 10 11 10 2 0
4 -4 4 -10z m-2945 -12 c33 -15 42 -51 21 -83 -17 -27 -31 -31 -41 -15 -3 6
-17 10 -30 10 -12 0 -26 7 -29 16 -5 14 1 58 11 77 6 11 39 9 68 -5z m2460
-34 c0 -10 -8 -20 -17 -22 -18 -3 -26 27 -11 42 12 11 28 0 28 -20z m725 8 c0
-5 -6 -16 -13 -27 -16 -21 -37 -12 -37 16 0 14 7 19 25 19 14 0 25 -4 25 -8z
m1300 -22 c0 -5 -2 -10 -4 -10 -3 0 -8 5 -11 10 -3 6 -1 10 4 10 6 0 11 -4 11
-10z m-2239 -47 c9 -25 0 -42 -23 -43 -16 0 -26 34 -15 52 16 25 26 23 38 -9z
m169 7 c0 -5 -5 -10 -11 -10 -5 0 -7 5 -4 10 3 6 8 10 11 10 2 0 4 -4 4 -10z
m-2350 -10 c0 -5 -5 -10 -11 -10 -5 0 -7 5 -4 10 3 6 8 10 11 10 2 0 4 -4 4
-10z m4434 -61 c4 -34 5 -64 2 -67 -3 -3 -15 3 -26 13 -14 13 -17 22 -10 30 6
7 9 21 9 31 -7 76 17 70 25 -7z m-1879 31 c3 -5 20 -10 36 -10 20 0 29 -4 26
-12 -5 -15 -48 -12 -58 4 -4 6 -19 8 -38 5 -17 -4 -31 -2 -31 3 0 5 10 11 23
13 12 2 25 5 29 6 4 0 10 -3 13 -9z m-258 -27 c3 -7 -4 -16 -15 -22 -17 -9
-18 -7 -14 15 4 24 22 28 29 7z m94 7 c5 0 9 -7 9 -15 0 -8 -9 -15 -20 -15
-11 0 -20 2 -20 4 0 2 -3 12 -7 22 -5 14 -3 16 11 11 10 -4 22 -7 27 -7z
m-3693 -42 c9 -9 18 -9 36 0 22 10 35 6 103 -33 43 -25 115 -64 160 -87 l83
-42 57 13 c113 26 117 26 157 -9 40 -36 43 -49 19 -86 -14 -22 -14 -27 -2 -35
8 -5 19 -9 25 -9 6 0 20 -11 32 -25 12 -14 29 -25 38 -25 16 0 16 2 1 18 -8 9
-17 26 -19 37 -2 17 2 20 27 19 17 -1 40 -5 53 -9 17 -6 22 -3 22 9 0 18 15
21 25 5 4 -6 -2 -21 -14 -33 -22 -23 -30 -83 -10 -70 15 9 1 -38 -15 -51 -7
-5 -19 -23 -27 -40 -10 -21 -21 -29 -34 -27 -72 12 -88 14 -110 8 -14 -4 -25
-12 -25 -20 0 -13 -58 -43 -95 -49 -11 -2 -33 -10 -50 -19 -24 -12 -142 -48
-160 -48 -21 0 -108 120 -185 254 -27 48 -31 62 -22 77 22 34 13 44 -53 64
l-65 20 0 80 c0 116 13 148 48 113z m1517 2 c8 -13 -26 -50 -47 -50 -20 0 -23
13 -8 41 11 20 45 26 55 9z m2222 -5 c0 -8 -4 -12 -9 -9 -4 3 -8 9 -8 15 0 5
4 9 8 9 5 0 9 -7 9 -15z m-42 -75 c3 -6 -4 -10 -17 -10 -18 0 -20 2 -8 10 19
12 18 12 25 0z m151 -27 c-11 -11 -19 6 -11 24 8 17 8 17 12 0 3 -10 2 -21 -1
-24z m-2446 8 c0 -13 -40 -100 -49 -105 -4 -3 -14 -24 -21 -47 -10 -30 -22
-44 -42 -51 -33 -12 -38 -47 -8 -55 20 -5 27 -38 12 -58 -25 -35 -170 -88
-217 -79 -65 12 -85 57 -54 121 27 56 17 68 -38 43 -40 -18 -42 -21 -37 -49 4
-20 2 -31 -5 -31 -6 0 -11 -6 -11 -14 0 -8 -4 -17 -9 -21 -5 -3 -13 24 -16 60
-10 94 1 105 103 98 86 -6 96 -2 204 88 83 71 188 126 188 100z m4360 -117 c0
-35 -15 -30 -17 6 -1 18 2 28 7 25 6 -4 10 -17 10 -31z m-24 -36 l32 -11 -36
-29 c-45 -36 -85 -35 -90 1 -3 15 3 30 14 38 22 16 38 16 80 1z m-4350 -34
c-4 -14 -9 -24 -12 -21 -3 2 -2 17 2 31 3 15 9 25 11 22 3 -3 2 -17 -1 -32z
m1214 6 c0 -5 -9 -10 -21 -10 -11 0 -17 5 -14 10 3 6 13 10 21 10 8 0 14 -4
14 -10z m3170 -10 c0 -5 -4 -10 -10 -10 -5 0 -10 5 -10 10 0 6 5 10 10 10 6 0
10 -4 10 -10z m-3086 -44 l39 -33 -27 -5 c-18 -4 -29 -1 -33 8 -3 8 -19 14
-35 14 -23 0 -29 4 -24 16 3 8 2 13 -3 10 -5 -3 -14 0 -20 8 -9 11 -5 14 26
14 29 0 48 -8 77 -32z m3092 -42 c5 -46 4 -48 -11 -29 -9 11 -14 29 -11 40 3
11 6 26 6 34 0 31 11 1 16 -45z m-31 -13 c7 -12 -22 -41 -41 -41 -20 0 -30 30
-13 41 18 11 46 11 54 0z m-706 -32 c14 -40 14 -39 -4 -39 -17 0 -39 46 -29
61 10 17 22 9 33 -22z m-2491 -46 c44 -36 67 -74 77 -131 8 -47 -7 -52 -156
-49 -97 1 -144 -2 -171 -12 -21 -9 -33 -18 -27 -22 8 -5 8 -12 0 -27 -23 -44
-8 -72 69 -125 l45 -32 182 -2 c156 -2 181 0 176 12 -3 8 0 15 6 15 6 0 11 -4
11 -9 0 -5 18 -7 40 -4 24 3 40 2 40 -5 0 -5 9 -12 20 -15 25 -6 25 -25 0 -57
l-20 -25 0 25 c-1 22 -2 23 -13 9 -18 -23 -59 -44 -81 -40 -13 2 -17 -2 -13
-12 3 -9 -1 -18 -9 -21 -9 -3 -12 -11 -9 -17 5 -7 -4 -10 -27 -8 -18 2 -38 1
-43 -3 -6 -3 -22 -8 -37 -12 -15 -3 -35 -14 -45 -24 -10 -10 -36 -24 -58 -31
-22 -8 -51 -22 -64 -32 -13 -11 -32 -19 -42 -19 -9 0 -44 -7 -76 -15 -32 -8
-83 -13 -113 -12 l-55 3 4 58 c2 41 0 56 -8 52 -17 -11 -15 119 3 133 28 23
26 90 -4 151 -4 9 -11 36 -15 60 -4 24 -20 67 -34 95 -25 46 -30 85 -12 85 4
0 21 -12 37 -26 35 -30 69 -45 88 -38 7 3 39 34 70 70 32 35 62 64 67 64 5 0
0 -9 -11 -20 -12 -12 -20 -33 -20 -52 1 -59 37 -86 125 -93 31 -2 61 -8 68
-11 7 -4 3 2 -7 14 -11 12 -14 22 -8 22 8 0 12 18 12 48 0 39 -5 53 -25 72
-19 18 -22 26 -14 37 17 20 28 16 77 -24z m3242 -9 c0 -21 -4 -33 -10 -29 -5
3 -10 19 -10 36 0 16 5 29 10 29 6 0 10 -16 10 -36z m-560 12 c0 -7 -7 -19
-15 -26 -8 -7 -15 -24 -15 -37 0 -15 -5 -23 -12 -21 -32 11 -13 98 22 98 11 0
20 -6 20 -14z m-2800 -11 c15 -18 5 -35 -20 -35 -10 0 -22 5 -25 10 -7 11 12
40 25 40 4 0 13 -7 20 -15z m2832 -74 c2 -13 -2 -26 -9 -28 -14 -5 -28 40 -18
57 10 16 24 0 27 -29z m328 -41 c0 -5 -4 -10 -10 -10 -5 0 -10 5 -10 10 0 6 5
10 10 10 6 0 10 -4 10 -10z m-141 -26 c10 -22 9 -25 -6 -22 -10 2 -19 13 -21
26 -5 30 12 28 27 -4z m-4597 6 c17 0 -10 -27 -32 -33 -11 -3 -23 -1 -26 4 -9
15 17 41 33 34 8 -3 19 -5 25 -5z m-702 -137 c10 -9 -17 -36 -41 -40 -13 -2
-42 -10 -64 -19 -40 -16 -116 -38 -190 -55 -22 -6 -49 -12 -60 -15 -11 -3 -16
-2 -10 3 6 4 16 20 22 36 8 16 20 27 32 27 11 0 21 5 23 11 2 6 46 21 97 34
51 13 96 27 99 30 6 6 83 -4 92 -12z m1120 2 c0 -8 5 -15 10 -15 6 0 13 7 16
15 13 34 22 11 22 -58 -1 -83 16 -144 44 -167 21 -17 34 -105 17 -116 -19 -11
-8 -20 21 -16 22 3 30 10 30 24 0 14 5 18 15 14 10 -3 17 3 21 20 5 19 9 22
15 12 7 -10 9 -9 9 4 0 19 54 52 83 51 32 -1 36 -3 61 -25 57 -52 114 -92 149
-104 15 -6 17 -17 15 -80 -1 -59 -5 -74 -17 -74 -14 0 -14 -2 -1 -11 12 -9 12
-10 -4 -5 -10 4 -25 1 -32 -5 -10 -8 -14 -8 -14 0 0 16 -37 13 -65 -5 -17 -11
-29 -13 -38 -6 -20 16 -288 26 -298 11 -6 -10 -11 -10 -23 0 -13 11 -16 11
-16 -3 0 -9 -8 -16 -20 -16 -29 0 -90 27 -90 39 0 6 -7 11 -15 11 -8 0 -15 9
-15 20 0 11 -6 20 -14 20 -7 0 -16 10 -19 22 -5 18 -8 19 -21 8 -9 -7 -16 -25
-16 -41 0 -15 -5 -31 -10 -34 -6 -4 -8 -15 -5 -26 9 -28 -13 -32 -76 -15 -61
16 -160 53 -172 65 -12 12 21 41 47 41 12 0 40 9 61 21 32 16 51 19 90 14 28
-3 59 -3 68 1 16 6 16 8 2 30 -9 14 -11 25 -5 29 6 3 10 16 10 29 0 13 9 31
20 41 11 10 22 34 26 54 11 65 34 124 72 182 36 56 62 75 62 44z m1613 -101
c11 -11 -3 -24 -18 -18 -8 4 -12 10 -9 15 6 11 18 12 27 3z m-1793 -119 c-20
-24 -31 -18 -18 10 8 17 15 22 21 16 7 -7 6 -15 -3 -26z m-300 -156 c0 -5 -3
-9 -8 -9 -4 0 -22 -14 -41 -30 -31 -29 -112 -57 -132 -45 -22 14 -6 34 40 49
28 9 59 16 69 16 11 0 22 6 25 13 5 15 47 20 47 6z m13 -96 c-6 -19 -48 -72
-107 -137 -19 -21 -33 -43 -30 -47 9 -14 54 -10 54 4 0 8 9 22 20 32 11 10 20
22 20 27 0 5 12 26 26 47 l25 39 42 -21 c55 -29 87 -57 87 -76 0 -9 -25 -31
-55 -50 -30 -18 -55 -37 -55 -42 0 -4 -8 -10 -17 -13 -10 -3 -38 -24 -63 -46
-25 -22 -50 -40 -56 -40 -6 0 -17 -7 -24 -15 -9 -11 -16 -13 -24 -5 -15 15
-93 12 -128 -6 -25 -13 -32 -14 -39 -2 -14 22 -10 38 10 38 32 0 50 11 44 26
-8 21 -69 44 -118 44 -79 0 -116 -72 -63 -124 25 -23 18 -29 -26 -21 -45 9
-61 29 -57 70 2 27 -3 37 -23 50 -31 21 -27 33 38 108 73 83 137 117 223 120
l68 2 3 -43 c4 -53 26 -66 53 -31 17 22 19 22 19 5 0 -14 19 -1 74 52 77 75
90 84 79 55z m2939 -68 c0 -5 -5 -11 -11 -13 -6 -2 -11 4 -11 13 0 9 5 15 11
13 6 -2 11 -8 11 -13z m-82 -85 c287 -18 343 -25 361 -46 9 -11 1 -13 -48 -9
-159 12 -321 16 -342 8 -21 -9 -22 -11 -7 -25 17 -18 139 -30 318 -32 60 -1
108 -4 108 -7 0 -4 7 -9 14 -12 10 -4 13 -1 10 7 -3 7 3 17 13 20 10 4 19 3
21 -3 5 -16 157 -162 191 -183 54 -35 41 -48 -46 -48 -56 0 -97 -7 -146 -24
-57 -20 -80 -23 -153 -19 -90 5 -120 0 -109 -17 4 -6 12 -7 18 -3 21 13 45 13
72 -1 l26 -14 -47 -16 c-26 -9 -50 -13 -53 -9 -3 5 -90 9 -192 11 -168 3 -408
28 -425 45 -14 14 -31 254 -20 284 8 21 31 2 57 -49 21 -41 39 -50 39 -18 0
22 15 27 23 7 5 -13 96 -41 105 -33 2 3 -10 13 -28 23 -50 28 -80 53 -80 68 0
18 52 58 59 47 8 -12 79 -23 85 -13 15 23 -36 38 -61 18 -9 -7 -13 -5 -13 6 0
26 51 56 85 50 17 -3 91 -9 165 -13z m-3063 -276 c-3 -3 -12 -4 -19 -1 -8 3
-5 6 6 6 11 1 17 -2 13 -5z m695 -301 c10 -9 18 -26 18 -38 0 -26 25 -91 39
-99 5 -4 22 -1 37 4 31 12 74 6 74 -11 0 -13 40 -53 70 -69 16 -9 46 -10 94
-6 39 3 85 2 101 -3 17 -5 22 -10 13 -10 -10 -1 -16 -9 -15 -21 1 -22 17 -26
34 -9 16 16 77 7 81 -12 2 -9 -18 -38 -43 -65 -25 -27 -45 -53 -45 -57 0 -13
-104 -57 -157 -67 -26 -5 -60 -12 -75 -16 -18 -4 -28 -2 -28 4 0 7 -15 10 -37
8 -21 -2 -49 2 -63 9 -14 7 -44 16 -67 20 -24 4 -53 15 -65 25 -21 17 -23 26
-23 117 1 96 13 276 20 301 6 16 15 15 37 -5z m1758 -739 c0 -17 -6 -24 -20
-24 -14 0 -20 7 -20 23 0 13 3 26 6 30 12 12 34 -6 34 -29z m-3170 -4 c24 -18
24 -20 9 -47 -10 -15 -26 -32 -36 -37 -11 -5 -24 -19 -29 -30 -11 -24 -56 -49
-76 -41 -8 3 -21 18 -31 34 -14 24 -14 30 -2 42 8 8 16 25 18 38 9 56 96 81
147 41z m2880 -154 c0 -7 3 -27 6 -43 5 -27 1 -32 -78 -83 -46 -29 -86 -58
-90 -63 -8 -13 -58 18 -58 36 0 6 39 36 86 66 47 30 93 65 102 77 19 26 32 30
32 10z m-2540 -7 c0 -14 -40 -72 -58 -83 -8 -4 -20 -23 -28 -42 -8 -19 -21
-34 -29 -34 -8 0 -23 -17 -34 -37 -26 -49 -92 -135 -108 -141 -18 -5 -16 29 3
57 14 19 14 25 3 32 -20 12 6 55 58 95 23 17 67 61 100 97 53 60 93 84 93 56z
m127 -26 c5 -15 -28 -26 -41 -13 -8 8 -7 14 4 20 17 11 32 8 37 -7z m-167
-154 c0 -14 -59 -73 -66 -66 -8 8 39 77 54 77 6 0 12 -5 12 -11z m-160 -165
c0 -8 -97 -104 -104 -104 -17 0 -1 24 41 65 45 42 63 54 63 39z"/>
<path d="M2770 3360 c19 -13 30 -13 30 0 0 6 -10 10 -22 10 -19 0 -20 -2 -8
-10z"/>
<path d="M2880 3245 c0 -8 4 -15 10 -15 5 0 7 7 4 15 -4 8 -8 15 -10 15 -2 0
-4 -7 -4 -15z"/>
<path d="M1910 2866 c0 -9 5 -16 10 -16 6 0 10 4 10 9 0 6 -4 13 -10 16 -5 3
-10 -1 -10 -9z"/>
<path d="M5233 3613 c9 -2 25 -2 35 0 9 3 1 5 -18 5 -19 0 -27 -2 -17 -5z"/>
<path d="M5479 3604 c-13 -15 -11 -16 21 -10 19 4 55 9 79 11 70 6 60 15 -16
15 -53 0 -74 -4 -84 -16z"/>
<path d="M4350 3339 c0 -5 5 -7 10 -4 6 3 10 8 10 11 0 2 -4 4 -10 4 -5 0 -10
-5 -10 -11z"/>
<path d="M4547 3343 c-13 -12 -7 -21 18 -26 25 -4 25 -4 9 14 -19 22 -18 21
-27 12z"/>
<path d="M4330 3281 c0 -5 13 -14 29 -21 22 -9 34 -9 48 0 15 10 14 10 -10 5
-19 -4 -29 -1 -33 10 -6 16 -34 21 -34 6z"/>
<path d="M3616 2935 c-17 -45 7 -125 42 -144 20 -10 68 5 106 34 33 25 33 41
-1 50 -15 3 -34 15 -44 26 -9 10 -32 22 -50 26 -19 3 -37 10 -40 15 -3 6 -9 2
-13 -7z"/>
<path d="M3796 2818 c-6 -10 -15 -18 -21 -18 -6 0 -16 -9 -23 -20 -22 -35 18
-23 67 19 43 38 43 39 16 38 -15 -1 -33 -10 -39 -19z"/>
<path d="M3976 2625 c4 -8 10 -12 15 -9 14 8 10 24 -6 24 -9 0 -12 -6 -9 -15z"/>
<path d="M1476 2172 c-3 -6 -1 -14 5 -17 15 -10 25 3 12 16 -7 7 -13 7 -17 1z"/>
<path d="M3828 1723 c6 -2 12 -11 12 -19 0 -8 5 -14 10 -14 6 0 19 -9 30 -20
11 -11 28 -20 38 -20 15 1 14 3 -4 18 -12 10 -26 28 -33 40 -8 15 -21 22 -39
21 -15 0 -21 -3 -14 -6z"/>
<path d="M4168 1563 c7 -3 16 -2 19 1 4 3 -2 6 -13 5 -11 0 -14 -3 -6 -6z"/>
<path d="M6270 3600 c19 -4 28 -8 20 -10 -20 -3 28 -18 63 -19 21 -1 27 4 27
19 0 18 -6 20 -72 19 -59 -1 -66 -3 -38 -9z"/>
<path d="M6321 3542 c-18 -12 -25 -14 -29 -4 -7 21 -22 13 -22 -12 0 -29 -20
-46 -21 -19 0 14 -2 15 -6 3 -3 -8 -12 -20 -20 -27 -9 -7 -13 -19 -9 -29 5
-13 14 -15 44 -10 20 4 53 8 72 10 19 2 38 4 43 5 4 0 7 24 7 51 0 56 -14 64
-59 32z"/>
<path d="M6321 3399 c-18 -6 -31 -12 -29 -14 7 -7 88 8 88 16 0 11 -15 10 -59
-2z"/>
<path d="M6365 2730 c-3 -5 -31 -10 -61 -10 -41 0 -54 -4 -54 -15 0 -8 5 -15
10 -15 6 0 10 5 10 10 0 6 7 10 16 10 14 0 14 -3 4 -15 -7 -8 -8 -15 -2 -15 5
0 15 6 21 13 6 8 23 12 41 9 25 -4 30 -1 30 17 0 23 -5 27 -15 11z"/>
<path d="M6058 2683 c7 -3 16 -2 19 1 4 3 -2 6 -13 5 -11 0 -14 -3 -6 -6z"/>
</g>
</svg>
